<?xml version="1.0" encoding="iso-8859-1"?>
<!-- Uploaded to: SVG Repo, www.svgrepo.com, Generator: SVG Repo Mixer Tools -->
<svg version="1.1" id="Layer_1" xmlns="http://www.w3.org/2000/svg" xmlns:xlink="http://www.w3.org/1999/xlink" 
	 viewBox="0 0 512 512" xml:space="preserve">
<path style="fill:#FBAE2E;" d="M120.626,465.107v-6.88v-1.905v-6.879c0-0.501,0.019-0.997,0.038-1.493c0,0.002,0,0.004,0,0.006
	h-5.146c-20.613,0-37.321-16.713-37.321-37.319c0-20.612,16.708-37.323,37.321-37.323h122.506l11.865-155.336H35.615l21.838,285.936
	h101.982C138.001,503.915,120.626,486.541,120.626,465.107z"/>
<g style="opacity:0.15;">
	<polygon style="fill:#202020;" points="34.537,217.979 56.375,503.915 82.85,503.915 61.013,217.979 	"/>
</g>
<polygon style="fill:#F7BF6D;" points="37.611,244.115 247.892,244.115 249.889,217.979 35.615,217.979 "/>
<g style="opacity:0.15;">
	<polygon style="fill:#202020;" points="35.615,217.979 37.611,244.115 64.065,244.115 62.068,217.979 	"/>
</g>
<path style="fill:#F7BD63;" d="M400.447,503.915h22.232c21.432,0,38.809-17.374,38.809-38.807v-6.88v-1.905v-6.879
	c0-21.435-17.377-38.809-38.809-38.809H159.435c-21.434,0-38.807,17.374-38.807,38.809v6.879v1.905v6.88
	c0,21.434,17.375,38.807,38.807,38.807H373.86"/>
<g style="opacity:0.15;">
	<path style="fill:#202020;" d="M146.042,466.276v-6.88v-1.905v-6.879c0-21.435,17.375-38.809,38.807-38.809h-26.584
		c-21.434,0-38.807,17.374-38.807,38.809v6.879v1.905v6.88c0,21.434,17.375,38.807,38.807,38.807h26.584
		C163.416,505.083,146.042,487.71,146.042,466.276z"/>
</g>
<path style="fill:#E95353;" d="M466.593,373.316H115.518c-20.613,0-37.321,16.712-37.321,37.323
	c0,20.606,16.708,37.319,37.321,37.319h5.146c0.783-20.744,17.835-37.322,38.771-37.322h263.245
	c20.933,0,37.987,16.578,38.771,37.322h5.143c20.61,0,37.324-16.713,37.324-37.319C503.916,390.028,487.203,373.316,466.593,373.316
	z"/>
<g style="opacity:0.15;">
	<path style="fill:#202020;" d="M103.6,410.639c0-20.612,16.708-37.323,37.321-37.323h-26.616
		c-20.613,0-37.321,16.712-37.321,37.323c0,20.606,16.708,37.319,37.321,37.319h5.146c0.081-2.142,0.344-4.236,0.759-6.276
		C110.196,434.989,103.6,423.584,103.6,410.639z"/>
</g>
<path style="fill:#8C5549;" d="M277.418,194.685c0-9.646-7.821-17.469-17.469-17.469H25.555c-9.648,0-17.471,7.823-17.471,17.469
	v5.823c0,9.649,7.821,17.472,17.471,17.472h234.394c9.648,0,17.469-7.822,17.469-17.472V194.685z"/>
<g style="opacity:0.15;">
	<path style="fill:#202020;" d="M33.512,200.508v-5.823c0-9.646,7.821-17.469,17.471-17.469H25.555
		c-9.648,0-17.471,7.823-17.471,17.469v5.823c0,9.649,7.821,17.472,17.471,17.472h25.428
		C41.333,217.979,33.512,210.157,33.512,200.508z"/>
</g>
<rect x="29.383" y="142.27" style="fill:#F7BF6D;" width="226.735" height="34.941"/>
<g style="opacity:0.15;">
	<rect x="29.383" y="142.27" style="fill:#202020;" width="25.352" height="34.941"/>
</g>
<polygon style="fill:#DCE0E2;" points="202.626,142.275 245.494,17.494 218.103,8.083 172.002,142.275 "/>
<g>
	<path style="fill:#202020;" d="M186.095,252.199H37.611c-4.465,0-8.084-3.618-8.084-8.084c0-4.466,3.62-8.084,8.084-8.084h148.484
		c4.465,0,8.084,3.618,8.084,8.084C194.18,248.581,190.56,252.199,186.095,252.199z"/>
	<path style="fill:#202020;" d="M512,410.639c0-25.037-20.37-45.407-45.408-45.407H403.72c-0.003,0-0.008,0-0.011,0h-54.391
		c-0.003,0-0.008,0-0.011,0h-54.39c-0.003,0-0.008,0-0.011,0h-48.159l10.631-139.168h2.569c14.09,0,25.554-11.464,25.554-25.556
		v-5.823c0-12.639-9.227-23.159-21.297-25.193v-27.218c0-4.466-3.62-8.084-8.084-8.084h-42.169l39.188-114.069
		c1.451-4.222-0.797-8.821-5.019-10.271l-27.39-9.41c-2.029-0.698-4.249-0.561-6.176,0.382c-1.926,0.941-3.4,2.609-4.097,4.637
		l-44.226,128.733H29.381c-4.465,0-8.084,3.618-8.084,8.084v27.218C9.227,171.526,0,182.045,0,194.685v5.823
		c0,14.091,11.463,25.556,25.554,25.556h2.571l21.268,278.468c0.321,4.214,3.835,7.469,8.06,7.469h101.982H373.86
		c4.466,0,8.084-3.618,8.084-8.084s-3.618-8.084-8.084-8.084H159.435c-16.941,0-30.724-13.782-30.724-30.723v-15.663
		c0-0.397,0.017-0.79,0.032-1.184c0-0.002,0-0.004,0-0.008c0.037-0.968,0.121-1.923,0.244-2.865
		c0.012-0.092,0.023-0.184,0.036-0.276c0.046-0.334,0.103-0.665,0.161-0.995c0.037-0.211,0.072-0.424,0.113-0.634
		c0.039-0.201,0.084-0.399,0.127-0.598c0.077-0.349,0.153-0.698,0.241-1.044c0.014-0.055,0.029-0.11,0.043-0.165
		c3.318-12.688,14.563-22.205,28.103-22.913c0.016-0.001,0.031-0.003,0.047-0.003c0.522-0.027,1.048-0.04,1.576-0.04h263.245
		c0.528,0,1.054,0.014,1.576,0.04c0.016,0.001,0.032,0.003,0.05,0.003c13.516,0.708,24.743,10.193,28.083,22.847
		c0.024,0.092,0.05,0.182,0.072,0.274c0.079,0.308,0.147,0.621,0.216,0.933c0.051,0.235,0.103,0.469,0.15,0.705
		c0.035,0.174,0.063,0.349,0.094,0.524c0.064,0.366,0.127,0.733,0.178,1.103c0.008,0.054,0.013,0.108,0.021,0.162
		c0.129,0.97,0.216,1.954,0.253,2.951c0,0.014,0.003,0.028,0.003,0.043c0.014,0.378,0.029,0.757,0.029,1.138v15.663
		c0,16.941-13.783,30.723-30.724,30.723h-22.232c-4.466,0-8.084,3.618-8.084,8.084s3.618,8.084,8.084,8.084h22.232
		c25.857,0,46.893-21.036,46.893-46.892v-9.174C493.224,454.393,512,434.673,512,410.639z M223.122,18.357l12.099,4.156
		l-38.367,111.676h-13.528L223.122,18.357z M37.465,150.359h134.536h30.624h45.411v18.773H37.465V150.359z M16.168,200.508v-5.823
		c0-5.175,4.21-9.385,9.385-9.385h3.827H256.12h3.828c5.175,0,9.385,4.21,9.385,9.385v5.823c0,5.176-4.21,9.387-9.385,9.387h-10.059
		H35.615H25.554C20.379,209.895,16.168,205.684,16.168,200.508z M64.943,495.831L44.34,226.064h196.824l-0.761,9.967h-29.499
		c-4.465,0-8.084,3.618-8.084,8.084c0,4.466,3.62,8.084,8.084,8.084h28.263l-8.634,113.032h-44.408c-0.01,0-0.018,0-0.028,0h-70.579
		c-25.036,0-45.405,20.37-45.405,45.407c0,0.767,0.02,1.53,0.058,2.287c0.013,0.255,0.039,0.507,0.056,0.761
		c0.033,0.5,0.065,1.001,0.114,1.498c0.03,0.3,0.073,0.594,0.109,0.893c0.054,0.446,0.103,0.894,0.17,1.337
		c0.047,0.314,0.107,0.623,0.161,0.936c0.072,0.42,0.141,0.841,0.225,1.258c0.065,0.32,0.14,0.635,0.211,0.953
		c0.091,0.402,0.178,0.805,0.278,1.203c0.081,0.32,0.172,0.637,0.261,0.955c0.108,0.388,0.213,0.777,0.331,1.161
		c0.097,0.319,0.204,0.633,0.308,0.949c0.124,0.376,0.248,0.752,0.38,1.123c0.113,0.316,0.236,0.628,0.356,0.941
		c0.14,0.363,0.28,0.727,0.429,1.087c0.129,0.31,0.265,0.618,0.401,0.925c0.156,0.354,0.314,0.707,0.479,1.056
		c0.143,0.303,0.292,0.604,0.442,0.903c0.172,0.345,0.346,0.688,0.527,1.028c0.157,0.295,0.319,0.587,0.482,0.878
		c0.188,0.335,0.379,0.669,0.576,0.999c0.17,0.287,0.345,0.571,0.522,0.854c0.203,0.324,0.41,0.647,0.62,0.966
		c0.184,0.278,0.371,0.554,0.561,0.829c0.218,0.315,0.439,0.625,0.664,0.933c0.196,0.268,0.395,0.536,0.596,0.8
		c0.233,0.304,0.469,0.604,0.709,0.902c0.208,0.258,0.416,0.515,0.629,0.769c0.247,0.293,0.499,0.582,0.752,0.869
		c0.219,0.247,0.438,0.495,0.662,0.737c0.261,0.282,0.528,0.558,0.795,0.834c0.229,0.235,0.457,0.471,0.691,0.702
		c0.276,0.272,0.557,0.536,0.84,0.801c0.238,0.223,0.474,0.446,0.718,0.665c0.291,0.261,0.589,0.514,0.885,0.767
		c0.246,0.209,0.488,0.42,0.738,0.624c0.306,0.25,0.62,0.49,0.932,0.733c0.252,0.195,0.501,0.393,0.758,0.583
		c0.322,0.239,0.652,0.468,0.982,0.698c0.257,0.18,0.51,0.363,0.771,0.538c0.343,0.231,0.694,0.448,1.043,0.669
		c0.255,0.162,0.507,0.328,0.765,0.484c0.371,0.224,0.749,0.435,1.127,0.649c0.248,0.14,0.492,0.287,0.742,0.421
		c0.416,0.225,0.842,0.437,1.265,0.649c0.22,0.11,0.434,0.227,0.655,0.334c0.621,0.299,1.25,0.583,1.886,0.855
		c0.028,0.012,0.056,0.026,0.084,0.038c0.665,0.281,1.338,0.546,2.018,0.798c0.237,0.087,0.48,0.163,0.718,0.246
		c0.447,0.156,0.894,0.315,1.347,0.457c0.288,0.091,0.58,0.167,0.87,0.252c0.412,0.121,0.822,0.244,1.239,0.352
		c0.314,0.082,0.632,0.151,0.946,0.226c0.399,0.095,0.798,0.193,1.201,0.278c0.332,0.069,0.668,0.126,1.002,0.189
		c0.393,0.073,0.785,0.149,1.181,0.211c0.346,0.055,0.695,0.098,1.043,0.144c0.391,0.053,0.783,0.108,1.177,0.15
		c0.356,0.039,0.714,0.066,1.071,0.096c0.288,0.025,0.573,0.058,0.863,0.078v9.162c0,0.773,0.022,1.541,0.058,2.305
		c0.012,0.253,0.036,0.502,0.052,0.755c0.033,0.51,0.067,1.02,0.116,1.525c0.029,0.295,0.068,0.587,0.102,0.882
		c0.054,0.458,0.108,0.915,0.175,1.369c0.045,0.308,0.098,0.614,0.15,0.922c0.072,0.434,0.148,0.867,0.232,1.297
		c0.061,0.312,0.127,0.621,0.195,0.93c0.092,0.42,0.188,0.84,0.291,1.256c0.077,0.308,0.155,0.615,0.237,0.921
		c0.111,0.413,0.229,0.822,0.35,1.231c0.089,0.3,0.18,0.599,0.275,0.897c0.133,0.413,0.274,0.821,0.417,1.229
		c0.1,0.285,0.198,0.57,0.304,0.853c0.157,0.423,0.327,0.839,0.496,1.256c0.106,0.26,0.207,0.522,0.317,0.778
		c0.198,0.464,0.41,0.919,0.623,1.374c0.095,0.203,0.183,0.409,0.28,0.61c0.317,0.654,0.648,1.301,0.994,1.938
		c0.022,0.039,0.045,0.078,0.067,0.116c0.326,0.595,0.664,1.182,1.014,1.761c0.125,0.206,0.258,0.406,0.386,0.611
		c0.255,0.407,0.511,0.814,0.778,1.214c0.157,0.235,0.323,0.466,0.485,0.698c0.25,0.359,0.501,0.717,0.761,1.068
		c0.179,0.241,0.362,0.479,0.545,0.717c0.257,0.333,0.514,0.665,0.779,0.992c0.194,0.238,0.391,0.473,0.59,0.708
		c0.143,0.169,0.28,0.344,0.425,0.511h-59.09V495.831z M468.578,439.808c-3.944-19.095-19.344-33.735-38.667-36.696
		c-0.066-0.01-0.13-0.021-0.196-0.03c-0.646-0.096-1.296-0.179-1.95-0.249c-0.153-0.016-0.305-0.036-0.459-0.051
		c-0.593-0.057-1.189-0.101-1.787-0.137c-0.182-0.011-0.362-0.027-0.545-0.036c-0.761-0.037-1.525-0.058-2.296-0.058H159.435
		c-0.77,0-1.535,0.022-2.296,0.058c-0.182,0.009-0.362,0.025-0.543,0.036c-0.599,0.036-1.196,0.079-1.789,0.137
		c-0.153,0.015-0.304,0.033-0.456,0.05c-0.655,0.07-1.306,0.153-1.953,0.249c-0.064,0.01-0.128,0.019-0.192,0.029
		c-19.322,2.96-34.722,17.597-38.668,36.688c-0.186-0.013-0.372-0.027-0.557-0.042c-0.213-0.018-0.427-0.036-0.639-0.058
		c-0.271-0.029-0.539-0.066-0.807-0.102c-0.208-0.028-0.417-0.055-0.624-0.088c-0.268-0.043-0.534-0.093-0.8-0.143
		c-0.204-0.039-0.409-0.074-0.61-0.116c-0.266-0.056-0.528-0.12-0.791-0.183c-0.198-0.047-0.397-0.092-0.593-0.143
		c-0.268-0.07-0.532-0.15-0.798-0.227c-0.186-0.055-0.374-0.106-0.559-0.163c-0.276-0.086-0.546-0.183-0.818-0.277
		c-0.17-0.059-0.343-0.114-0.512-0.177c-0.299-0.11-0.592-0.231-0.885-0.349c-0.138-0.056-0.278-0.107-0.415-0.165
		c-0.427-0.181-0.849-0.373-1.267-0.573c-0.068-0.033-0.135-0.07-0.203-0.103c-0.347-0.171-0.693-0.345-1.033-0.529
		c-0.152-0.083-0.3-0.172-0.451-0.258c-0.251-0.142-0.502-0.282-0.749-0.431c-0.169-0.102-0.334-0.211-0.5-0.318
		c-0.222-0.14-0.445-0.279-0.664-0.426c-0.171-0.115-0.337-0.236-0.506-0.355c-0.208-0.146-0.416-0.29-0.62-0.441
		c-0.169-0.126-0.334-0.258-0.501-0.387c-0.196-0.152-0.392-0.303-0.584-0.459c-0.166-0.136-0.328-0.277-0.492-0.416
		c-0.185-0.158-0.372-0.317-0.554-0.48c-0.161-0.144-0.317-0.293-0.474-0.441c-0.177-0.166-0.354-0.332-0.526-0.502
		c-0.155-0.153-0.306-0.31-0.458-0.467c-0.167-0.172-0.334-0.345-0.497-0.521c-0.15-0.162-0.295-0.327-0.441-0.491
		c-0.158-0.179-0.316-0.359-0.469-0.541c-0.141-0.168-0.279-0.338-0.417-0.51c-0.15-0.186-0.299-0.375-0.445-0.566
		c-0.134-0.175-0.264-0.351-0.393-0.529c-0.141-0.194-0.28-0.388-0.417-0.585c-0.125-0.181-0.249-0.364-0.37-0.549
		c-0.133-0.2-0.262-0.402-0.389-0.606c-0.116-0.186-0.232-0.375-0.344-0.564c-0.123-0.208-0.244-0.417-0.362-0.628
		c-0.108-0.192-0.213-0.384-0.317-0.578c-0.114-0.215-0.224-0.431-0.333-0.649c-0.098-0.196-0.196-0.393-0.29-0.593
		c-0.105-0.221-0.204-0.445-0.303-0.669c-0.088-0.201-0.177-0.401-0.261-0.605c-0.095-0.229-0.183-0.459-0.273-0.69
		c-0.079-0.204-0.157-0.409-0.232-0.614c-0.084-0.236-0.163-0.474-0.241-0.712c-0.068-0.207-0.138-0.413-0.202-0.621
		c-0.074-0.244-0.141-0.49-0.209-0.736c-0.057-0.208-0.117-0.415-0.17-0.625c-0.064-0.253-0.12-0.511-0.178-0.766
		c-0.046-0.206-0.096-0.411-0.137-0.619c-0.054-0.267-0.098-0.537-0.144-0.806c-0.034-0.202-0.073-0.402-0.103-0.605
		c-0.043-0.285-0.075-0.572-0.11-0.859c-0.023-0.192-0.051-0.382-0.07-0.573c-0.031-0.317-0.052-0.637-0.073-0.956
		c-0.011-0.166-0.028-0.331-0.037-0.498c-0.025-0.487-0.038-0.978-0.038-1.471c0-16.122,13.116-29.239,29.237-29.239h48.02
		c-3.151,2.878-3.539,7.748-0.799,11.085c1.599,1.948,3.917,2.956,6.254,2.956c1.804,0,3.621-0.601,5.124-1.836l14.871-12.205
		h28.952c-3.151,2.879-3.539,7.748-0.8,11.086c1.599,1.948,3.917,2.954,6.254,2.954c1.804,0,3.621-0.601,5.124-1.836l14.871-12.205
		h28.952c-3.151,2.878-3.539,7.748-0.799,11.085c1.597,1.948,3.916,2.956,6.253,2.956c1.805,0,3.621-0.601,5.124-1.836
		l14.871-12.205h28.951c-3.151,2.878-3.539,7.748-0.799,11.085c1.597,1.948,3.916,2.956,6.253,2.956
		c1.805,0,3.621-0.601,5.124-1.836l14.871-12.205h28.953c-3.151,2.878-3.539,7.748-0.799,11.085
		c1.597,1.948,3.916,2.956,6.253,2.956c1.805,0,3.621-0.601,5.124-1.836l14.871-12.205h60.001c16.123,0,29.24,13.117,29.24,29.239
		C495.832,426.092,483.78,438.784,468.578,439.808z"/>
</g>
</svg>